<svg xmlns="http://www.w3.org/2000/svg" viewBox="0 0 1024 1024">
  <path d="M450.249 196.825c27.478-37.633 59.585-71.532 95.725-100.802l-98.263 15.382c-19.563 3.136-37.932-10.304-41.068-29.867s10.304-37.932 29.867-40.918l189.06-29.569c19.563-3.136 37.931 10.304 41.068 29.867l29.718 188.761c3.136 19.563-10.304 37.932-29.867 40.918-19.563 3.136-37.932-10.304-41.068-29.867l-15.979-101.549c-37.931 27.627-71.532 60.929-99.458 98.861-96.173 130.371-117.528 303.9-53.462 454.58.149.299.299.597.299.896 1.045 2.389 1.941 4.629 2.987 6.869.299.747.597 1.344.896 2.091.896 1.792 1.643 3.733 2.539 5.525.448 1.045 1.045 2.24 1.493 3.285.597 1.344 1.344 2.688 1.941 4.032.747 1.493 1.493 2.987 2.24 4.63.448.746.747 1.493 1.195 2.24 32.705 63.767 80.044 119.32 138.435 161.881L625.421 782.075c3.136-19.563 21.504-32.854 41.068-29.718 19.563 3.136 32.854 21.504 29.718 41.068l-30.166 188.761c-3.136 19.563-21.504 32.854-41.068 29.718l-188.91-30.166c-19.563-3.136-32.854-21.504-29.718-41.068 3.136-19.563 21.504-32.854 41.068-29.718l98.114 15.68c-36.139-29.419-68.247-63.318-95.575-101.1-17.174-23.596-32.107-48.236-44.801-73.325l-2.688-5.376c-.448-1.045-1.045-1.941-1.493-2.987-1.195-2.389-2.24-4.779-3.285-7.019-.15-.448-.448-.896-.597-1.195-1.195-2.688-2.539-5.376-3.734-8.064v-.149c-7.467-16.726-14.038-34.049-19.712-51.521-50.625-157.251-28.225-335.559 76.61-479.071z" fill="currentColor"/>
</svg>
